<?xml version="1.0" encoding="utf-8"?>
<!-- Generator: Adobe Illustrator 22.0.0, SVG Export Plug-In . SVG Version: 6.00 Build 0)  -->
<svg version="1.1" id="图层_1" xmlns="http://www.w3.org/2000/svg" xmlns:xlink="http://www.w3.org/1999/xlink" x="0px" y="0px"
	 viewBox="0 0 130 46" style="enable-background:new 0 0 130 46;" xml:space="preserve">
<style type="text/css">
	.st0{clip-path:url(#SVGID_2_);fill:#FFFFFF;}
	.st1{clip-path:url(#SVGID_4_);fill:#0C92F1;}
	.st2{fill:#FFFFFF;}
	.st3{fill:#0C92F1;}
</style>
<g>
	<defs>
		<rect id="SVGID_1_" width="130" height="46"/>
	</defs>
	<clipPath id="SVGID_2_">
		<use xlink:href="#SVGID_1_"  style="overflow:visible;"/>
	</clipPath>
	<rect x="-5" y="-5" class="st0" width="140" height="56"/>
</g>
<g>
	<defs>
		<rect id="SVGID_3_" x="2" y="2" width="75" height="42"/>
	</defs>
	<clipPath id="SVGID_4_">
		<use xlink:href="#SVGID_3_"  style="overflow:visible;"/>
	</clipPath>
	<rect x="-3" y="-3" class="st1" width="85" height="52"/>
</g>
<g>
	<path class="st2" d="M19.4,31c-0.7,0.4-1.2,0.6-1.5,0.8c-0.3,0.2-0.5,0.3-0.6,0.3c-0.1,0-0.1,0.1-0.1,0c0,0,0,0,0,0
		c-0.1,0-0.2,0.1-0.4,0.2s-0.6,0.3-1.2,0.6c0,0-0.1,0-0.4,0.1c-0.2,0.1-0.5,0.2-0.9,0.3c-0.3,0.1-0.7,0.2-1,0.4
		c-0.3,0.1-0.6,0.2-0.8,0.2c-0.1,0-0.2,0-0.3,0s-0.2-0.1-0.3-0.1c-0.1,0-0.2,0-0.3,0c-0.1,0-0.2,0-0.2,0c-0.1,0-0.1-0.1-0.2-0.1
		c0-0.1-0.1-0.2-0.1-0.3c0-0.2,0.1-0.4,0.2-0.6c0.1-0.2,0.3-0.4,0.4-0.5c0.8-0.9,1.6-1.7,2.5-2.4c0.8-0.7,1.7-1.3,2.6-1.8
		c0.9-0.5,1.9-1,2.9-1.4c1-0.4,2.1-0.8,3.3-1.1c0-0.2,0-0.5-0.1-0.7c-0.1-0.2-0.2-0.4-0.4-0.6c-0.3-0.2-0.6-0.4-1.1-0.6
		s-0.9-0.3-1.4-0.3c-0.6,0-1.1,0-1.7,0.1c-0.6,0.1-1.2,0.1-1.8,0.2c-0.2,0-0.4,0-0.6,0.1c-0.2,0-0.4,0-0.6-0.1c-0.1,0-0.1,0-0.2-0.1
		s-0.1-0.1-0.2-0.1c-0.1,0-0.2-0.1-0.3-0.1c-0.1,0-0.2-0.1-0.3-0.1c-0.1-0.1-0.2-0.2-0.3-0.3c-0.1-0.1-0.1-0.3-0.1-0.5
		c0-0.2,0-0.4,0.1-0.6c0.1-0.2,0.2-0.4,0.3-0.6c0.1-0.2,0.2-0.4,0.3-0.5s0.2-0.3,0.3-0.4c1-1.2,2.2-2.2,3.6-3
		c0.3-0.2,0.7-0.4,1.1-0.6c0.4-0.2,0.8-0.3,1.3-0.4c0.1,0,0.2,0,0.4,0c0.1,0,0.3,0,0.4,0c0.3,0,0.5,0,0.7,0s0.4,0.1,0.6,0.2
		c0.1,0,0.1,0.1,0.1,0.1c0,0.1,0.1,0.1,0.2,0.1c0,0.1,0,0.2,0,0.3s0,0.2-0.1,0.3c0.1,0,0.1,0,0.1,0c0,0,0,0,0,0
		c0,0.1-0.1,0.3-0.1,0.4c0,0.1-0.1,0.2-0.1,0.4c-0.1,0.2-0.2,0.4-0.2,0.6c0,0.1-0.1,0.1-0.1,0.2c0,0.1-0.1,0.2-0.1,0.2
		C23,19,23,19,23,19s0,0.1,0,0.1c-0.1,0-0.1,0-0.2,0c-0.1,0-0.1,0-0.2,0c0,0-0.1,0-0.1,0c0,0,0,0-0.1,0c-0.1,0-0.1,0-0.1,0.1
		c0,0-0.1,0.1-0.2,0c0-0.2,0-0.3,0-0.5c0-0.1,0.1-0.3,0.1-0.4c0-0.1,0.1-0.3,0.1-0.4c0-0.1,0.1-0.3,0.1-0.4c-0.3,0-0.5,0-0.8,0.1
		c-0.3,0.1-0.5,0.1-0.7,0.2c-0.2,0.1-0.4,0.1-0.5,0.2c-0.2,0.1-0.3,0.2-0.5,0.3c-0.7,0.3-1.3,0.7-1.9,1.1c-0.1,0.1-0.3,0.2-0.4,0.3
		c-0.1,0.1-0.2,0.3-0.3,0.4c-0.3,0.4-0.7,0.8-1,1.2c-0.3,0.4-0.5,0.9-0.7,1.4c0.1,0.1,0.2,0.1,0.4,0.1c0.6,0,1.2,0,1.8-0.1
		c0.6-0.1,1.2-0.1,1.8,0c0.5,0,1,0.1,1.5,0.2c0.5,0.1,0.9,0.2,1.4,0.4c0.4,0.2,0.8,0.4,1.1,0.7c0.3,0.3,0.5,0.7,0.7,1.1
		c0.5-0.1,0.9-0.2,1.3-0.3c0.4-0.1,0.8-0.1,1.1-0.2s0.8-0.1,1.2-0.1c0.4,0,0.9-0.1,1.4-0.1c0,0,0,0.1-0.1,0c0,0-0.1,0-0.1,0
		c0,0,0.1,0.1,0.1,0.1c0.1,0,0.1,0,0.2,0c-0.1,0-0.2,0.1-0.3,0.1c-0.1,0-0.2,0.1-0.4,0.1c0,0,0.1,0,0.1,0c0.1,0,0.1,0,0.2,0
		c-0.1,0.1-0.2,0.1-0.3,0.1c-0.1,0-0.3,0-0.4,0.1c0,0,0.1,0,0.2,0c0,0,0,0,0,0.1c-0.1,0.1-0.3,0.1-0.5,0.1c-0.2,0-0.3,0-0.5,0.1
		c-0.5,0.1-0.8,0.2-1,0.2c-0.2,0-0.3,0.1-0.4,0.1c-0.1,0-0.1,0-0.1,0c0,0-0.1,0-0.3,0.1c0,0-0.1,0-0.1,0.1c0,0-0.1,0-0.1,0
		c-0.1,0.1-0.3,0.1-0.5,0.1c-0.2,0-0.3,0.1-0.5,0.1L24.6,26c-0.1,0-0.1,0.1-0.2,0.1s-0.2,0.1-0.2,0.1c-0.1,0.2-0.1,0.4-0.2,0.5
		s-0.2,0.4-0.3,0.5c-0.1,0.1-0.2,0.2-0.2,0.3c-0.1,0.1-0.2,0.2-0.3,0.3c-0.2,0.2-0.3,0.4-0.5,0.5c-0.4,0.4-0.9,0.8-1.4,1.2
		c-0.1,0-0.1,0.1-0.1,0.1c0,0-0.1,0.1-0.1,0.1c0,0,0,0,0,0c0,0,0,0,0,0.1c-0.1,0.1-0.2,0.1-0.3,0.2s-0.2,0.1-0.4,0.2
		c-0.1,0.1-0.2,0.2-0.4,0.4C19.7,30.8,19.6,30.9,19.4,31z M22.7,26.6C22.6,26.6,22.6,26.6,22.7,26.6C22.6,26.6,22.6,26.6,22.7,26.6
		c0,0,0-0.1,0.1-0.1c-0.5,0.2-0.9,0.4-1.3,0.5c-0.4,0.1-0.7,0.3-1,0.4c-0.3,0.1-0.6,0.2-0.8,0.4c-0.3,0.1-0.6,0.3-0.9,0.4
		c-0.3,0.2-0.6,0.4-1,0.6c-0.4,0.2-0.8,0.5-1.3,0.8c-0.5,0.3-0.8,0.6-1.1,0.8c-0.3,0.2-0.5,0.4-0.6,0.5s-0.3,0.3-0.5,0.5
		c-0.2,0.1-0.4,0.3-0.7,0.6c-0.1,0.1-0.1,0.1-0.2,0.2c0,0.1-0.1,0.1-0.1,0.2c-0.1,0.1,0.1,0.1,0.5,0c0.4-0.1,0.9-0.3,1.5-0.5
		s1.4-0.5,2.1-0.9c0.8-0.4,1.5-0.8,2.3-1.2c0.7-0.5,1.4-1,1.9-1.5C22.2,27.7,22.5,27.1,22.7,26.6z M27.2,25.3c-0.1,0-0.1,0-0.2,0
		C27.1,25.3,27.1,25.3,27.2,25.3C27.2,25.3,27.2,25.3,27.2,25.3z M28.7,24.9C28.7,24.9,28.7,24.9,28.7,24.9
		C28.7,25,28.6,25,28.7,24.9C28.6,25,28.7,25,28.7,24.9C28.7,24.9,28.7,24.9,28.7,24.9z"/>
	<path class="st2" d="M29.7,27.4c-0.1,0.1-0.2,0.1-0.4,0.2c-0.1,0-0.3,0.1-0.4,0.1c-0.2,0-0.3,0.1-0.5,0.1c-0.2,0-0.4,0.1-0.6,0
		c-0.2,0-0.4,0-0.6-0.1c-0.2-0.1-0.3-0.2-0.4-0.4c-0.1-0.1-0.1-0.3-0.2-0.4c0-0.2,0-0.3,0-0.5c0-0.2,0.1-0.4,0.2-0.5
		c0.1-0.2,0.1-0.3,0.2-0.5c0.1-0.1,0.1-0.1,0.2-0.2s0.1-0.1,0.1-0.2c0.3-0.3,0.6-0.7,0.9-1c0.3-0.3,0.6-0.5,0.9-0.7
		c0.1-0.1,0.3-0.2,0.5-0.2s0.3-0.1,0.4-0.2c0.1,0,0.1-0.1,0.1-0.1c0,0,0.1,0,0.1,0c0.5,0,0.8,0.1,0.9,0.3c0.1,0.2,0.2,0.3,0.2,0.5
		c0,0.1-0.1,0.1-0.1,0.2c-0.1,0.1-0.1,0.1-0.2,0.2C31.1,23.9,31,23.9,31,24c-0.1,0.1-0.1,0.1-0.1,0.2c-0.5,0.5-1.1,0.9-1.6,1.2
		c-0.1,0.1-0.3,0.2-0.5,0.2c-0.2,0-0.4,0-0.7,0c-0.1,0.1-0.2,0.2-0.2,0.3s-0.1,0.3-0.2,0.4c0,0.1-0.1,0.3-0.1,0.4
		c0,0.1,0.1,0.3,0.2,0.4c0.3,0,0.5,0,0.7-0.1c0.2-0.1,0.4-0.1,0.6-0.2c0.1,0,0.3-0.1,0.5-0.1c0.2-0.1,0.3-0.1,0.4-0.2
		c0.3-0.1,0.5-0.2,0.7-0.3c0.2-0.1,0.3-0.2,0.5-0.2s0.3-0.1,0.5-0.2s0.4-0.2,0.7-0.3c0.2-0.1,0.4-0.2,0.6-0.3s0.4-0.2,0.6-0.3
		c0,0,0.1,0,0.1,0c0,0,0,0,0,0s0,0,0,0s0,0,0.1,0c0,0,0,0,0.1,0c0,0,0,0,0,0c0.1,0,0.2,0,0.2,0c0,0,0.1,0.1,0.1,0.1
		c0,0,0,0.1-0.1,0.2c0,0.1-0.1,0.1-0.1,0.2c0,0,0,0-0.1,0s-0.1,0.1-0.2,0.1c-0.1,0-0.1,0.1-0.2,0.2c-0.1,0.1-0.3,0.2-0.5,0.3
		c-0.2,0.1-0.4,0.2-0.6,0.4s-0.4,0.2-0.6,0.3c-0.2,0.1-0.3,0.2-0.4,0.2L29.7,27.4z M28.3,25.3c0.1,0,0.2,0,0.4-0.1
		c0.1-0.1,0.2-0.1,0.3-0.2c0.3-0.2,0.5-0.4,0.8-0.7c0.3-0.3,0.5-0.5,0.8-0.8c0,0,0,0,0-0.1c-0.5,0.2-0.9,0.4-1.3,0.8
		C28.9,24.6,28.6,24.9,28.3,25.3z"/>
	<path class="st2" d="M35.9,26.5c0.3-0.1,0.5-0.2,0.6-0.2c0.1-0.1,0.2-0.1,0.3-0.1s0.1,0,0.2-0.1c0,0,0.1,0,0.1-0.1
		c0.1,0,0.1,0,0.3-0.1s0.3-0.1,0.5-0.2c0.1-0.1,0.2-0.1,0.3-0.2c0.1-0.1,0.3-0.1,0.4-0.1c0,0,0,0,0.1,0c0.1,0,0.1,0,0.1,0
		c0.1-0.1,0.2-0.1,0.3,0c0.1,0,0.1,0,0,0.1c0,0,0,0,0,0.1c0,0,0,0,0,0.1c0,0,0,0-0.1,0.1c0,0,0,0.1-0.1,0.1c0,0-0.1,0-0.1,0.1
		c-0.1,0-0.2,0-0.2,0.1c-0.1,0-0.1,0.1-0.2,0.1c-0.1,0.1-0.2,0.1-0.3,0.2c-0.1,0.1-0.2,0.1-0.3,0.2c-0.1,0.1-0.1,0.1-0.2,0.1
		c-0.6,0.3-1.1,0.5-1.6,0.7c-0.5,0.2-1.1,0.4-1.6,0.6c-0.1,0-0.2,0-0.2,0.1c-0.1,0-0.2,0.1-0.3,0.1c0,0-0.1,0-0.1,0
		c-0.1,0-0.1,0-0.1,0c0,0,0,0,0,0c0,0,0,0-0.1,0c-0.2,0.1-0.3,0.1-0.4,0.1c-0.1,0-0.3,0-0.4,0c-0.1,0-0.2,0-0.3-0.1
		s-0.2-0.1-0.2-0.1c-0.2-0.1-0.3-0.3-0.4-0.5c-0.1-0.2,0-0.5,0.2-0.9c0.1-0.2,0.2-0.4,0.3-0.5c0.1-0.2,0.3-0.3,0.5-0.5
		c0.1-0.2,0.3-0.3,0.4-0.4s0.2-0.2,0.4-0.4c0.1-0.1,0.3-0.3,0.5-0.4c0.2-0.2,0.3-0.3,0.5-0.5c0.1-0.1,0.2-0.1,0.2-0.2
		c0.1-0.1,0.1-0.1,0.3-0.2c0.1,0,0.1,0,0.2-0.1c0,0,0.1,0,0.1-0.1c0.1,0,0.1-0.1,0.2-0.1c0-0.1,0.1-0.1,0.2-0.1c0.1,0,0.3,0,0.5,0.1
		c0.1,0.1,0.1,0.1,0.1,0.2c0,0.1,0,0.2,0,0.3c0,0.1,0,0.2,0,0.3c0,0.1-0.1,0.1-0.1,0.2c-0.1,0.1-0.2,0.1-0.3,0.1
		c-0.1,0-0.1,0.1-0.2,0.2c0,0-0.1,0-0.1,0c-0.1,0-0.1,0-0.1,0.1c0,0-0.1,0-0.1,0s-0.1,0-0.1,0c0,0-0.1,0.1-0.1,0.1
		c-0.1,0-0.1,0.1-0.2,0.1l-0.3,0.3l-0.4,0.3c-0.1,0.1-0.2,0.2-0.3,0.3c-0.1,0.1-0.2,0.2-0.3,0.3c-0.1,0.1-0.2,0.2-0.3,0.4
		c-0.1,0.1-0.1,0.3-0.2,0.4c-0.1,0.2,0,0.3,0.2,0.3c0.2,0,0.5,0,0.8-0.1c0.3-0.1,0.7-0.2,1-0.3C35.4,26.7,35.7,26.6,35.9,26.5z"/>
	<path class="st2" d="M38,25.4c0-0.1,0.1-0.2,0.1-0.2s0-0.1,0.1-0.1c0,0,0-0.1,0-0.1s0-0.1,0.1-0.2c0.1-0.1,0.1-0.2,0.2-0.3
		s0.1-0.2,0.2-0.3c0,0,0,0,0-0.1c0,0,0,0,0,0c0,0,0-0.1,0.1-0.1c0,0,0-0.1,0-0.1c0.1,0,0.1-0.1,0.2-0.2c0-0.1,0.1-0.2,0.1-0.2
		c0,0,0,0,0-0.1c0,0,0,0,0-0.1c0.1-0.1,0.2-0.2,0.4-0.2c0.1-0.1,0.2-0.1,0.4-0.1c0.1,0.1,0.2,0.2,0.3,0.3c0,0.1,0,0.3,0,0.4
		c-0.1,0.1-0.1,0.2-0.2,0.3c-0.1,0.2-0.1,0.3-0.2,0.4c0,0.1-0.1,0.2-0.1,0.3c0,0.1-0.1,0.2-0.1,0.3c0,0.1-0.1,0.2-0.2,0.4
		c-0.1,0.2-0.1,0.3-0.2,0.3c-0.1,0.1-0.1,0.2-0.2,0.4c0,0.1-0.1,0.2-0.1,0.3s-0.1,0.3-0.2,0.4s0,0.2,0,0.2s0.2,0,0.4-0.2
		c0.5-0.3,0.9-0.7,1.3-1.1c0.4-0.4,0.8-0.8,1.2-1.3c0.1-0.1,0.1-0.2,0.2-0.3c0.1-0.1,0.2-0.2,0.2-0.3c0.1-0.1,0.1-0.2,0.2-0.3
		c0.1-0.1,0.1-0.1,0.1-0.2c0,0,0.1-0.1,0.2-0.1s0.2,0,0.2,0s0.1,0.1,0.2,0.2c0,0.1,0.1,0.3,0,0.5c-0.1,0.2-0.1,0.3-0.2,0.4
		c0,0.1-0.1,0.2-0.1,0.4c0,0.1-0.1,0.2-0.1,0.4c0,0.2-0.1,0.4-0.1,0.5s0,0.4,0,0.5s0.1,0.2,0.1,0.3c0.2,0.1,0.3,0.1,0.5,0.1
		c0.1,0,0.3-0.1,0.4-0.2c0.4-0.2,0.7-0.3,0.9-0.4c0.2-0.1,0.3-0.2,0.4-0.2c0.1-0.1,0.3-0.1,0.4-0.2c0.2-0.1,0.5-0.2,0.9-0.3
		c0,0,0,0,0,0.1c0,0,0,0,0,0s0.1,0,0.1,0c0,0.1-0.1,0.2-0.2,0.3s-0.2,0.2-0.3,0.2c0,0,0,0-0.1,0.1C45.4,26,45.3,26,45.3,26l-1.2,0.7
		c-0.3,0.2-0.6,0.4-0.8,0.5c-0.3,0.1-0.4,0.2-0.4,0.2c-0.1,0-0.2,0.1-0.2,0.1c0,0-0.1,0-0.2,0.1c-0.1,0-0.2,0-0.3,0
		c-0.1,0-0.2,0-0.3-0.1c-0.1-0.1-0.2-0.1-0.3-0.3c-0.1-0.1-0.1-0.3-0.1-0.4s0-0.3,0-0.5c0-0.2,0-0.3,0.1-0.4c0-0.1,0-0.1,0-0.2
		c0-0.1,0-0.1,0.1-0.2c-0.1,0-0.1,0.1-0.1,0.1s-0.1,0.1-0.2,0.1c0,0.1-0.1,0.1-0.1,0.1c0,0-0.1,0-0.1,0c0,0-0.1,0-0.1,0.1
		c0,0-0.1,0.1-0.1,0.1c0,0-0.1,0-0.1,0c0,0,0,0,0,0c0,0,0,0,0,0.1c-0.1,0.1-0.3,0.2-0.4,0.3c-0.1,0.1-0.2,0.2-0.4,0.3
		c-0.1,0.1-0.2,0.2-0.3,0.3c-0.1,0.1-0.2,0.2-0.3,0.3c-0.1,0.1-0.2,0.1-0.3,0.2c0,0,0,0.1-0.1,0.1c0,0-0.1,0-0.1,0
		c0,0.1-0.1,0.2-0.2,0.2s-0.2,0.1-0.2,0.2c-0.5,0.1-0.9,0-1-0.1c-0.2-0.2-0.3-0.4-0.3-0.6s0.1-0.6,0.2-0.9
		C37.7,26,37.8,25.7,38,25.4z"/>
	<path class="st2" d="M50.2,23.3C50.2,23.3,50.2,23.4,50.2,23.3c0,0.1,0,0.2-0.1,0.2c0,0,0,0-0.1,0c0,0.1-0.1,0.1-0.1,0.1
		c-0.1,0-0.1,0.1-0.2,0.1c-0.3,0.1-0.5,0.2-0.8,0.3s-0.6,0.3-0.8,0.4c-0.3,0.1-0.5,0.3-0.8,0.4c-0.2,0.1-0.4,0.3-0.5,0.4
		c-0.1,0.1-0.2,0.2-0.3,0.3s-0.2,0.3-0.3,0.4c0,0.1-0.1,0.2-0.1,0.4c0,0.2-0.1,0.3-0.1,0.5s-0.1,0.3-0.1,0.4s-0.1,0.2-0.1,0.2
		c0,0.1-0.1,0.1-0.2,0.2c-0.1,0.1-0.1,0.1-0.2,0.1c-0.2,0.1-0.4,0.1-0.5,0s-0.2-0.3-0.1-0.5c0-0.1,0.1-0.3,0.2-0.6
		c0.1-0.3,0.2-0.5,0.2-0.6v0c0,0,0-0.1,0-0.1c0.1-0.2,0.2-0.4,0.3-0.6c0.1-0.2,0.1-0.4,0.2-0.6c0,0,0,0,0,0s0,0,0,0
		c0.1-0.3,0.1-0.5,0.3-0.8c0.1-0.3,0.2-0.5,0.3-0.8c0-0.1,0-0.1,0.1-0.1c0,0,0.1-0.1,0.1-0.1c0.1,0,0.1-0.1,0.2-0.1c0,0,0.1,0,0.1,0
		c0,0,0.1,0,0.1,0c0,0,0.1,0,0.1,0c0,0,0.1,0,0.1,0c0.1,0,0.2,0.1,0.3,0.1c0.2,0.2,0.1,0.4,0,0.6c0,0.1,0,0.2-0.1,0.3
		c0,0.1-0.1,0.2-0.1,0.3c0.5-0.3,0.9-0.6,1.4-0.7c0.5-0.1,0.9-0.2,1.3-0.2c0.1,0,0.2,0,0.4,0S50.1,23.2,50.2,23.3z"/>
	<path class="st2" d="M50.8,26.8c0,0,0.2,0,0.3,0c0.2-0.1,0.4-0.2,0.7-0.3c0.3-0.1,0.6-0.3,0.9-0.4c0.3-0.2,0.7-0.3,1-0.4
		c0.1,0,0.2-0.1,0.3-0.1c0.1-0.1,0.2-0.1,0.3-0.1c0.1-0.1,0.2-0.1,0.3-0.2c0.1-0.1,0.2-0.1,0.4-0.1c0.1,0,0.1,0,0.1-0.1s0,0,0,0
		c0,0,0,0,0.1,0c0,0,0,0,0,0c0,0.1,0,0.1-0.1,0.2L55,25.3c-0.1,0.1-0.2,0.2-0.3,0.3s-0.3,0.2-0.4,0.2c-0.1,0.1-0.3,0.2-0.4,0.3
		c-0.2,0.1-0.3,0.2-0.5,0.3c-0.1,0.1-0.4,0.2-0.6,0.4c-0.3,0.2-0.6,0.4-0.9,0.6c-0.3,0.2-0.6,0.4-0.8,0.5S50.6,28,50.5,28
		c0,0-0.1,0.1-0.1,0c0,0,0,0-0.1,0c-0.2,0-0.4,0-0.6-0.1c-0.2,0-0.3-0.1-0.4-0.3c0-0.2,0-0.3,0-0.5c0-0.2,0.1-0.3,0.2-0.5
		c0-0.1,0.1-0.2,0.1-0.3c0-0.1,0.1-0.2,0.1-0.3c0.1-0.1,0.1-0.2,0.2-0.3s0.1-0.2,0.1-0.3c0.1-0.3,0.3-0.6,0.5-0.9
		c0.2-0.3,0.3-0.6,0.5-0.9c0.1-0.1,0.2-0.1,0.3-0.1c0.1,0,0.1,0,0.2,0c0.1,0,0.1,0,0.1,0c0,0.1,0.1,0.1,0.1,0.1s0.1,0.1,0.1,0.2
		c0,0.1,0,0.2,0,0.2c0,0.1,0,0.1,0,0.2c0,0.1,0,0.2-0.1,0.3c0,0,0,0.1-0.1,0.1c0,0,0,0.1-0.1,0.1c0,0,0,0,0,0c0,0,0,0,0,0
		c0,0,0,0,0,0.1c0,0,0,0,0,0.1c-0.1,0.2-0.2,0.4-0.3,0.6c-0.1,0.2-0.2,0.4-0.3,0.6c-0.1,0.2-0.2,0.3-0.2,0.5
		C50.7,26.7,50.7,26.7,50.8,26.8z M51.6,21.9c0,0,0-0.1,0.1-0.2c0.1-0.1,0.2-0.2,0.3-0.3c0.1-0.1,0.2-0.2,0.3-0.2
		c0.1,0,0.2,0,0.3,0.1c0,0,0.1,0,0.1,0c0,0,0,0,0,0c0.1,0.1,0.1,0.2,0.1,0.4s-0.1,0.3-0.2,0.3c0,0,0,0,0,0s0,0,0,0c0,0-0.1,0,0,0
		c0,0.1,0,0.1-0.1,0c0,0,0,0.1-0.1,0.1c0,0-0.1,0.1-0.1,0.1c0,0,0,0,0,0c0,0,0,0,0,0c0,0.1-0.1,0.1-0.2,0.1c-0.1,0-0.1,0.1-0.2,0.1
		c0,0-0.1,0-0.1,0s-0.1,0-0.1,0c-0.1,0-0.1-0.1-0.2-0.1c0-0.1,0-0.1,0-0.2c0-0.1,0-0.2,0-0.2S51.6,22,51.6,21.9z"/>
	<path class="st2" d="M54,28.9L54,28.9c-0.1-0.1-0.2-0.1-0.2-0.2c0-0.1,0-0.1,0-0.2c0-0.5,0.1-1,0.2-1.4c0.1-0.5,0.2-0.9,0.3-1.3
		c0.1-0.5,0.3-1,0.5-1.5c0.2-0.5,0.3-1,0.5-1.5c0.1-0.2,0.1-0.4,0.2-0.6s0.1-0.4,0.2-0.6c-0.2,0-0.3,0.1-0.5,0.1
		c-0.2,0-0.3,0.1-0.6,0.2c-0.1,0-0.2,0.1-0.3,0.1C54.1,22,54,22,53.9,22c0,0-0.1,0.1-0.1,0.1s-0.1,0.1-0.1,0.1c-0.1,0-0.1,0-0.2,0
		c0,0-0.1,0-0.1,0c-0.1,0-0.1-0.1-0.1-0.2s0-0.2,0-0.3c0-0.1,0.1-0.1,0.1-0.2c0-0.1,0.1-0.1,0.1-0.2l0.2-0.1c0.1,0,0.2-0.1,0.4-0.1
		c0.2,0,0.3-0.1,0.5-0.1S55,21,55.1,21c0.1,0,0.2,0,0.3,0c0.1,0,0.1,0,0.2,0c0.1,0,0.1,0,0.2-0.1c0.1-0.4,0.3-0.8,0.5-1.2
		c0.2-0.4,0.3-0.8,0.5-1.2c0.1-0.2,0.2-0.4,0.3-0.5c0.1-0.2,0.1-0.4,0.2-0.5c0.1-0.1,0.1-0.2,0.1-0.3c0,0,0-0.1,0-0.1s0-0.1,0-0.1
		c0-0.1,0-0.1,0.1-0.2c0-0.1,0.1-0.1,0.1-0.2c0-0.1,0-0.1,0.1-0.2s0.1-0.1,0.1-0.2c0,0,0.1-0.1,0.3-0.1c0.1-0.1,0.3-0.1,0.4-0.1
		c0.1,0,0.3,0,0.4,0.1c0.1,0.1,0.2,0.1,0.2,0.3c0,0.1,0,0.1,0,0.2c0,0.1-0.1,0.1-0.1,0.2c0,0.1,0,0.1,0,0.2c0,0.1,0,0.1,0,0.2
		c-0.1,0.3-0.3,0.6-0.4,1c-0.1,0.3-0.3,0.7-0.5,1c-0.1,0.3-0.3,0.6-0.4,0.9c-0.1,0.3-0.3,0.6-0.4,0.9h0c0.2,0,0.3-0.1,0.5-0.1
		c0.2,0,0.3,0,0.5-0.1c0.2,0,0.4,0,0.4-0.1c0.1,0,0.1,0,0.2,0c0.1,0,0.1,0,0.2,0c0.1,0,0.2,0,0.5,0c0.1,0,0.3,0,0.5,0s0.3,0,0.5,0.1
		c0,0,0,0,0,0.1c0,0,0,0,0,0.1c0,0,0,0,0,0c0,0,0,0,0,0c0,0,0,0.1,0,0.1c0,0.1,0,0.1,0,0.1c-0.1,0-0.1,0.1-0.2,0.1s-0.1,0-0.1,0l0,0
		c-0.5,0.1-1,0.1-1.6,0.2c-0.6,0.1-1.1,0.2-1.6,0.3l-0.1,0.2c-0.2,0.7-0.5,1.4-0.7,2.1c-0.2,0.7-0.5,1.4-0.7,2.1
		c0,0.1-0.1,0.2-0.1,0.3c-0.1,0.1-0.1,0.2-0.1,0.3c-0.1,0.1-0.1,0.2-0.1,0.4S55,26.9,55,27c0,0,0,0.1-0.1,0.1s0,0.1,0,0.1
		c0,0.1,0,0.1-0.1,0.2c0,0.1,0,0.1,0,0.2c0,0.1,0,0.1,0,0.2s0,0.1,0,0.2l-0.1,0.2c0,0.1,0,0.1,0,0.2c0,0.1,0,0.1,0,0.2
		c-0.1,0-0.1,0.1-0.1,0.1c0,0,0,0-0.1,0c0,0-0.1,0-0.2,0S54.1,28.8,54,28.9z"/>
	<path class="st2" d="M60.8,25.2c0,0-0.1,0.1-0.3,0.3c-0.2,0.1-0.4,0.3-0.6,0.5c-0.2,0.2-0.4,0.3-0.6,0.4c-0.2,0.1-0.3,0.2-0.4,0.3
		c-0.1,0.1-0.2,0.1-0.3,0.1c-0.1,0-0.3,0-0.4-0.1c-0.4,0-0.7-0.1-1-0.4c0-0.1-0.1-0.2-0.1-0.3s0-0.2,0-0.3c0-0.1,0.1-0.2,0.1-0.3
		s0.1-0.2,0.1-0.3c0,0,0-0.1,0-0.1s0,0,0-0.1c0,0,0,0,0-0.1c0,0,0,0,0-0.1c0-0.1,0-0.1,0.1-0.2s0-0.1,0.1-0.2c0-0.1,0.1-0.2,0.2-0.3
		c0.1-0.1,0.1-0.2,0.2-0.3c0.1-0.1,0.1-0.2,0.2-0.3s0.1-0.2,0.2-0.3c0.1-0.1,0.2-0.2,0.3-0.2c0.1-0.1,0.3-0.1,0.5,0
		c0.1,0.1,0.2,0.1,0.3,0.3c0.1,0.1,0.1,0.3,0,0.4l-0.1,0.1c0,0-0.1,0.1-0.1,0.2s-0.1,0.2-0.1,0.2s-0.1,0.2-0.1,0.2S59,24.7,59,24.7
		c0,0.1-0.1,0.2-0.1,0.2c-0.1,0-0.1,0.1-0.1,0.2c-0.1,0.1-0.1,0.2-0.1,0.3c0,0.1-0.1,0.2-0.1,0.3c0,0,0.1,0,0.1,0c0,0,0.1,0,0.1-0.1
		c0.4-0.3,0.9-0.5,1.2-0.8s0.8-0.6,1.1-0.9c0,0,0,0,0,0c0,0,0,0,0-0.1l0.1-0.1c0-0.1,0-0.2,0-0.2c0-0.1,0-0.1,0.1-0.2
		c0.1-0.1,0.3-0.1,0.4-0.1c0.2,0,0.3,0,0.5,0.1c0.1,0.1,0.1,0.2,0.1,0.3s0,0.2,0,0.4c0,0.1,0,0.2-0.1,0.4s-0.1,0.2-0.1,0.3
		c-0.1,0.5-0.3,0.9-0.4,1.3s-0.2,0.7-0.4,1.1c0.1,0,0.1,0,0.1,0c0,0,0.1-0.1,0.1-0.1c0.4-0.2,0.7-0.4,0.9-0.6
		c0.3-0.2,0.5-0.3,0.7-0.5c0.2-0.2,0.5-0.3,0.8-0.5c0.3-0.2,0.6-0.4,1-0.6s0.8-0.5,1.2-0.7c0.4-0.2,0.8-0.4,1.3-0.6c0,0,0,0-0.1,0.1
		s-0.1,0-0.1,0c0,0,0.1,0,0.2,0c0.1,0,0.1,0,0.2,0c0,0.1-0.1,0.1-0.2,0.2c-0.1,0-0.2,0.1-0.3,0.1c0,0.1-0.1,0.1-0.2,0.1
		c-0.1,0-0.1,0.1-0.2,0.1l0,0c-0.1,0.1-0.3,0.2-0.4,0.2c-0.2,0.1-0.3,0.2-0.3,0.3c0,0-0.1,0-0.1,0c0,0,0,0-0.1,0
		c-0.2,0.1-0.3,0.2-0.5,0.3c-0.2,0.1-0.3,0.2-0.5,0.3c-0.2,0.1-0.3,0.2-0.3,0.2s-0.1,0.1-0.1,0.1c0,0-0.1,0-0.1,0.1
		c-0.1,0-0.2,0.1-0.3,0.2c-0.1,0.1-0.1,0.1-0.1,0.1c0,0-0.1,0.1-0.3,0.2c-0.2,0.1-0.4,0.3-0.6,0.4c-0.1,0.1-0.3,0.2-0.4,0.3
		c-0.1,0.1-0.2,0.2-0.3,0.2c0,0-0.1,0-0.2,0.1c-0.1,0.1-0.3,0.2-0.4,0.3c-0.1,0.1-0.3,0.2-0.4,0.3c-0.1,0.1-0.2,0.2-0.2,0.2
		c0,0.1-0.2,0.2-0.3,0.3c-0.2,0.1-0.3,0.3-0.4,0.5c-0.1,0.3-0.3,0.6-0.4,0.9c-0.2,0.3-0.3,0.6-0.5,0.9c-0.2,0.3-0.3,0.5-0.5,0.8
		c-0.1,0.2-0.3,0.4-0.3,0.6c0,0-0.1,0.1-0.2,0.3c-0.1,0.2-0.3,0.4-0.5,0.7c-0.2,0.3-0.5,0.6-0.7,1s-0.5,0.7-0.8,1
		c-0.3,0.3-0.5,0.6-0.7,0.8c-0.2,0.2-0.4,0.4-0.5,0.5c-0.2,0.1-0.3,0.2-0.4,0.3c-0.1,0.1-0.2,0.1-0.4,0.2c-0.1,0.1-0.3,0.2-0.5,0.2
		c-0.2,0.1-0.4,0.1-0.5,0.1c-0.2,0-0.3,0-0.5,0c-0.1,0-0.2,0-0.3-0.1c0,0,0,0,0,0s-0.1,0-0.1-0.1h-0.1c-0.1-0.1-0.1-0.3-0.1-0.5
		c0-0.2,0-0.4,0-0.6c0-0.1,0-0.2,0.1-0.4c0.1-0.2,0.2-0.4,0.4-0.7c0.2-0.3,0.3-0.6,0.5-0.9c0.2-0.3,0.4-0.6,0.6-0.9
		c0.2-0.3,0.4-0.5,0.6-0.8S55,32,55,31.9c0.1-0.2,0.4-0.4,0.7-0.8s0.7-0.7,1.1-1c0.4-0.4,0.8-0.7,1.1-1c0.4-0.3,0.6-0.5,0.9-0.6
		c0,0,0,0,0,0c0,0,0,0,0,0c0,0,0,0,0,0c0,0,0,0,0,0c0,0,0,0,0,0h0l0.8-0.5c0.2-0.5,0.4-0.9,0.6-1.4C60.5,26.2,60.7,25.7,60.8,25.2z
		 M57.1,30.9c-0.1,0.1-0.3,0.3-0.6,0.6c-0.3,0.3-0.5,0.6-0.8,0.9c-0.3,0.3-0.6,0.7-0.9,1.1c-0.3,0.4-0.6,0.8-0.8,1.1
		c-0.2,0.4-0.4,0.7-0.5,1c-0.1,0.3-0.2,0.5-0.1,0.7c0,0.1,0,0.2,0.1,0.2c0.1,0,0.2,0,0.2,0c0.1,0,0.1-0.1,0.2-0.1
		c0.1,0,0.2-0.1,0.2-0.1s0.1-0.1,0.2-0.1c0.1-0.1,0.2-0.2,0.3-0.4c0.1-0.1,0.2-0.2,0.3-0.3c0.1-0.1,0.2-0.3,0.4-0.4
		c0.1-0.1,0.2-0.3,0.3-0.4l0.5-0.5l0.7-1c0,0,0,0,0,0c0,0,0,0,0-0.1l0.2-0.3c0-0.1,0.2-0.2,0.4-0.5c0.2-0.3,0.4-0.6,0.6-1
		c0.2-0.4,0.4-0.7,0.6-1.1s0.3-0.6,0.4-0.7L57.1,30.9z"/>
</g>
<g>
	<path class="st3" d="M89.2,26c0,0-0.1-0.1-0.1-0.1s-0.1-0.1-0.2,0c0,0,0-0.1,0-0.1c0-0.1,0-0.1,0-0.2c0.5-0.4,1-0.7,1.5-1
		c0.6-0.3,1.1-0.6,1.7-0.9s1.1-0.6,1.7-0.8c0.6-0.3,1.1-0.5,1.7-0.8c0.5-0.3,1.1-0.6,1.6-0.9c0.5-0.3,1-0.6,1.5-1
		c0.2-0.2,0.5-0.3,0.7-0.5c0.2-0.2,0.5-0.4,0.7-0.6c0.2-0.2,0.4-0.5,0.6-0.7c0.2-0.2,0.3-0.5,0.4-0.8c-0.4-0.3-0.9-0.5-1.5-0.6
		c-0.7-0.1-1.3-0.1-2.1,0c-0.5,0-1,0.1-1.5,0.2c-0.5,0.1-1,0.2-1.5,0.3c-0.2,0.1-0.5,0.1-0.7,0.2c-0.3,0.1-0.5,0.2-0.7,0.3
		c-0.2,0.1-0.5,0.2-0.6,0.3c-0.2,0.1-0.4,0.2-0.5,0.3c-0.1,0.1-0.2,0.3-0.3,0.6c-0.1,0.3-0.3,0.6-0.4,0.9c-0.1,0.3-0.3,0.6-0.4,1
		c-0.1,0.3-0.3,0.6-0.4,0.9c-0.2,0.6-0.4,1.1-0.6,1.7c-0.2,0.6-0.4,1.1-0.6,1.7c-0.2,0.6-0.4,1.1-0.6,1.7c-0.2,0.5-0.4,1.1-0.6,1.7
		c-0.1,0.3-0.2,0.6-0.3,0.9c-0.1,0.3-0.2,0.6-0.2,0.9c-0.1,0.3-0.1,0.6-0.2,0.9s-0.1,0.6-0.2,1c0,0,0,0-0.1,0c0,0,0,0-0.1,0
		c0,0.1-0.1,0.2-0.2,0.2c-0.1,0-0.3,0-0.4-0.1c0,0,0,0.1,0.1,0.1c0,0.1-0.1,0.1-0.1,0s-0.1,0-0.1,0c0,0,0,0,0,0c0,0,0,0,0,0
		c0,0-0.1,0.1-0.2,0.1c0-0.1-0.1-0.1-0.1-0.1c0.1-0.7,0.2-1.4,0.4-2.1c0.2-0.7,0.3-1.3,0.5-2l0.6-1.7c0.1-0.3,0.2-0.6,0.3-0.9
		c0.1-0.3,0.2-0.6,0.3-0.9c0-0.1,0.1-0.3,0.1-0.4c0.1-0.1,0.1-0.3,0.2-0.4c0.1-0.4,0.3-0.8,0.5-1.3c0.2-0.4,0.3-0.8,0.5-1.2
		c0.2-0.5,0.4-0.9,0.6-1.4s0.4-1,0.6-1.5c0-0.1,0.1-0.2,0.1-0.3c0.1-0.1,0.1-0.3,0.2-0.4s0.2-0.3,0.2-0.4s0.1-0.2,0.2-0.3
		c0.1-0.1,0.2-0.1,0.3-0.2c0.1-0.1,0.3-0.1,0.4-0.2c0.8-0.3,1.7-0.5,2.6-0.7s1.9-0.3,2.9-0.4c0.7,0,1.4,0,2.1,0
		c0.7,0.1,1.2,0.2,1.7,0.5c0.3,0.2,0.6,0.4,0.8,0.6c0.2,0.2,0.3,0.6,0.4,1c0,0.2,0,0.4-0.1,0.5c-0.1,0.2-0.1,0.3-0.2,0.5
		c-0.2,0.4-0.5,0.8-0.8,1c-0.3,0.3-0.6,0.6-1,0.8c-0.2,0.2-0.5,0.3-0.7,0.5c-0.2,0.2-0.5,0.3-0.8,0.5c-0.8,0.5-1.5,0.9-2.4,1.3
		s-1.6,0.8-2.4,1.2c-0.3,0.1-0.5,0.3-0.8,0.4c-0.3,0.1-0.6,0.3-0.8,0.4c-0.1,0.1-0.3,0.1-0.4,0.2c-0.1,0.1-0.3,0.1-0.4,0.2
		c-0.1,0-0.1,0.1-0.2,0.1c-0.1,0-0.1,0.1-0.2,0.1c-0.2,0.1-0.4,0.2-0.6,0.2s-0.4,0.2-0.6,0.3l0,0v0c0,0-0.1,0-0.1,0
		C89.3,26,89.3,26,89.2,26z"/>
	<path class="st3" d="M105.2,25.6c0.4-0.1,0.6-0.2,0.7-0.1c0.1,0.1,0,0.1-0.1,0.3c0,0-0.1,0.1-0.1,0.1c-0.1,0-0.1,0.1-0.2,0.2
		c-0.2,0.2-0.3,0.3-0.4,0.3c-0.1,0-0.1,0.1-0.2,0.1c-0.2,0.1-0.4,0.2-0.6,0.4c-0.2,0.1-0.3,0.3-0.5,0.4c-0.2,0.1-0.4,0.2-0.6,0.3
		c-0.2,0.1-0.5,0.1-0.7,0c0,0-0.1,0-0.1,0c0,0-0.1,0-0.1,0c-0.1-0.1-0.2-0.1-0.3-0.2c0-0.1-0.1-0.2-0.1-0.3c0-0.1,0-0.2-0.1-0.4
		c0-0.2,0-0.3,0-0.5c0,0,0,0-0.1,0c0,0,0,0,0,0c0,0-0.1,0-0.1,0.1c0,0-0.1,0-0.1,0.1c-0.1,0.1-0.1,0.2-0.2,0.2
		c-0.1,0.1-0.1,0.1-0.2,0.2c0,0.1-0.1,0.1-0.1,0.1c0,0-0.1,0.1-0.1,0.1c0,0,0,0,0,0c0,0,0,0,0,0c0,0-0.1,0-0.1,0
		c-0.1,0-0.1,0-0.1,0.1c-0.3,0.2-0.6,0.4-1,0.5c-0.1,0.1-0.2,0.1-0.3,0.2s-0.2,0.1-0.3,0c-0.1,0-0.1,0-0.2,0s-0.1,0-0.2,0
		c-0.1,0-0.2,0-0.3,0c-0.1,0-0.2-0.1-0.3-0.1c-0.1-0.1-0.2-0.3-0.1-0.5c0,0,0,0,0,0s0,0,0,0c0-0.1,0.1-0.3,0.1-0.4s0.1-0.2,0.2-0.4
		c0.1-0.2,0.2-0.4,0.4-0.5c0.1-0.2,0.3-0.3,0.4-0.5c0.1-0.1,0.3-0.2,0.5-0.5s0.5-0.4,0.7-0.7c0.3-0.2,0.5-0.4,0.7-0.6
		c0.2-0.2,0.4-0.3,0.4-0.3c0.1-0.1,0.3-0.2,0.4-0.3c0.1-0.1,0.2-0.2,0.4-0.2c0,0,0,0,0,0s0,0,0,0c0,0,0.1,0,0.1,0s0.1,0,0.1,0
		c0.1,0,0.2,0.1,0.3,0.1c0.1,0.1,0.1,0.1,0.2,0.2c0.1,0.1,0.1,0.1,0.1,0.2c0,0,0,0.1,0,0.2c0,0.1-0.1,0.1-0.1,0.1c0,0-0.1,0.1-0.1,0
		s-0.1,0-0.2,0c-0.1,0.1-0.3,0.1-0.4,0.2l-0.2,0.2l0,0c0,0-0.1,0-0.1,0c0,0-0.1,0.1-0.1,0.1c-0.1,0-0.2,0.1-0.3,0.2
		s-0.2,0.1-0.3,0.2c-0.1,0.1-0.1,0.1-0.2,0.2s-0.1,0.1-0.2,0.2c-0.1,0.1-0.2,0.2-0.3,0.3c-0.1,0.1-0.2,0.2-0.3,0.3
		c-0.1,0.1-0.1,0.1-0.2,0.2s-0.1,0.1-0.2,0.2c0,0.1,0,0.1-0.1,0.1v0v0c-0.1,0-0.1,0.1-0.2,0.2s-0.1,0.1-0.2,0.2
		c0,0.1-0.1,0.2-0.2,0.3c-0.1,0.1-0.1,0.2-0.1,0.3c0.1,0,0.2-0.1,0.3-0.2c0.5-0.3,0.9-0.5,1.3-0.8c0.4-0.3,0.8-0.6,1.3-1
		c0.1-0.1,0.2-0.2,0.4-0.3s0.2-0.2,0.3-0.3h0.1v0c0,0,0-0.1,0.1-0.1c0,0,0-0.1,0.1-0.1c0,0,0-0.1,0-0.1s0-0.1,0-0.1c0,0,0.1,0,0.1,0
		s0.1,0,0.1,0h0.3c0.1,0,0.1,0.1,0.2,0.1c0.1,0,0.1,0.1,0.1,0.3c0,0.1-0.1,0.2-0.2,0.3c-0.1,0.1-0.2,0.2-0.2,0.3
		c0,0.1-0.1,0.2-0.1,0.3v0.1c-0.1,0-0.1,0.1-0.1,0.2c0,0.1,0,0.1,0,0.2c0,0,0,0.1-0.1,0.2l-0.1,0.4c0,0.2,0,0.3,0.1,0.3s0.2,0,0.3,0
		c0.1,0,0.2-0.1,0.3-0.2s0.2-0.1,0.3-0.2c0.2-0.1,0.5-0.2,0.7-0.4C104.8,25.9,105,25.7,105.2,25.6z"/>
	<path class="st3" d="M106.9,24.7c0.3-0.3,0.6-0.6,1-0.9c0.3-0.3,0.7-0.6,1.1-0.8c0.1-0.1,0.3-0.1,0.4-0.2c0.2-0.1,0.3-0.1,0.5,0
		c0.1,0,0.1,0,0.2,0s0.1,0,0.1,0.1c0,0,0.1,0,0.1,0c0,0,0.1,0,0.1,0c0,0,0.1,0.1,0.1,0.1c0,0,0,0.1,0.1,0.2c0,0,0.1,0.1,0.1,0.2
		c0.1,0.1,0,0.3-0.1,0.6c-0.1,0.3-0.3,0.6-0.4,0.9c-0.2,0.3-0.3,0.6-0.5,0.9c-0.2,0.3-0.3,0.5-0.4,0.6c-0.1,0.1-0.2,0.3-0.3,0.4
		s-0.2,0.2-0.4,0.3c-0.1,0.1-0.3,0.2-0.4,0.3c-0.1,0.1-0.2,0.2-0.4,0.3l-0.7,0.2c0,0-0.1-0.1-0.2-0.1c-0.1,0-0.1-0.1-0.1-0.1
		c0-0.2,0.2-0.4,0.4-0.5c0.2-0.1,0.4-0.2,0.5-0.4c0.3-0.3,0.6-0.6,0.9-0.9c0.3-0.3,0.5-0.7,0.7-1.1c0.1-0.2,0.2-0.4,0.3-0.6
		c0.1-0.2,0.1-0.3,0-0.4c0-0.1-0.1-0.1-0.3-0.1c-0.1,0-0.3,0.2-0.6,0.4c-0.3,0.2-0.7,0.5-1,0.8c-0.3,0.3-0.6,0.6-0.9,0.9
		c-0.1,0.1-0.1,0.2-0.2,0.2c-0.1,0.1-0.1,0.1-0.1,0.2c0,0.1,0,0.1,0,0.2c0,0.1,0,0.1,0,0.2c-0.1,0.3-0.2,0.6-0.3,1
		c-0.1,0.3-0.2,0.6-0.3,0.9c0,0.1-0.1,0.3-0.1,0.4s-0.1,0.3-0.1,0.4c0,0.1-0.1,0.1-0.1,0.2c0,0.1,0,0.1,0,0.2
		c-0.2,0.7-0.5,1.4-0.7,2c-0.2,0.7-0.5,1.4-0.7,2c-0.1,0.2-0.2,0.5-0.3,0.7c-0.1,0.2-0.2,0.5-0.4,0.6c0,0.1-0.1,0.1-0.1,0.2
		s-0.1,0.1-0.2,0.1c0,0-0.1,0-0.1,0s-0.1,0-0.1,0c-0.1,0.1-0.1,0.1-0.2,0.1c-0.1,0.1-0.2,0.1-0.3,0c-0.1,0-0.2-0.1-0.3-0.1
		c-0.1-0.1-0.1-0.2-0.1-0.3c0-0.1,0-0.3,0-0.4s0-0.3,0-0.4s0-0.2,0.1-0.3c0.1-0.6,0.2-1.2,0.4-1.8s0.4-1.1,0.6-1.7
		c0.1-0.3,0.3-0.7,0.4-0.9s0.3-0.5,0.5-0.8c0.2-0.2,0.3-0.5,0.5-0.8c0.2-0.3,0.4-0.5,0.6-0.8c0-0.2,0.1-0.4,0.2-0.6
		c0.1-0.2,0.1-0.5,0.2-0.8c0.1-0.3,0.1-0.5,0.2-0.8c0-0.3,0.1-0.5,0.1-0.7c0-0.1,0-0.3,0-0.4s0-0.3,0.1-0.4c0,0,0.1-0.1,0.3-0.1
		s0.3,0,0.4,0c0.1,0,0.2,0.1,0.4,0.1c0.1,0.1,0.2,0.2,0.2,0.3c0,0.1,0,0.3,0,0.4C107,24.4,106.9,24.6,106.9,24.7z M104.9,28.6
		c-0.1,0.3-0.2,0.6-0.4,0.9s-0.3,0.6-0.5,1c-0.1,0.2-0.2,0.5-0.3,0.7c-0.1,0.3-0.2,0.5-0.3,0.7c-0.1,0.1-0.1,0.2-0.2,0.3
		s-0.1,0.2,0,0.4c0,0,0,0,0,0.1c-0.1,0.3-0.2,0.5-0.2,0.8c-0.1,0.3-0.1,0.5-0.2,0.8l0,0C103.7,32.5,104.4,30.6,104.9,28.6z"/>
	<path class="st3" d="M113.6,27.4c-0.1,0.1-0.2,0.1-0.3,0.2s-0.3,0.1-0.4,0.1c-0.2,0-0.3,0.1-0.5,0.1c-0.2,0-0.4,0.1-0.6,0
		c-0.2,0-0.4,0-0.6-0.1s-0.3-0.2-0.4-0.4c-0.1-0.1-0.1-0.3-0.2-0.4c0-0.2,0-0.3,0-0.5c0-0.2,0.1-0.4,0.2-0.5
		c0.1-0.2,0.2-0.3,0.2-0.5c0.1-0.1,0.1-0.1,0.2-0.2s0.1-0.1,0.1-0.2c0.3-0.3,0.6-0.7,0.9-1c0.3-0.3,0.6-0.5,0.9-0.7
		c0.1-0.1,0.3-0.2,0.5-0.2s0.3-0.1,0.4-0.2c0.1,0,0.1-0.1,0.1-0.1c0,0,0.1,0,0.2,0c0.5,0,0.8,0.1,0.9,0.3c0.1,0.2,0.2,0.3,0.2,0.5
		c0,0.1-0.1,0.1-0.1,0.2c-0.1,0.1-0.1,0.1-0.2,0.2c-0.1,0.1-0.1,0.1-0.2,0.2c-0.1,0.1-0.1,0.1-0.1,0.2c-0.5,0.5-1.1,0.9-1.6,1.2
		c-0.1,0.1-0.3,0.2-0.5,0.2s-0.4,0-0.7,0c-0.1,0.1-0.2,0.2-0.2,0.3s-0.1,0.3-0.2,0.4c0,0.1-0.1,0.3-0.1,0.4c0,0.1,0.1,0.3,0.2,0.4
		c0.3,0,0.5,0,0.7-0.1c0.2-0.1,0.4-0.1,0.6-0.2c0.1,0,0.3-0.1,0.5-0.1c0.2-0.1,0.3-0.1,0.4-0.2c0.3-0.1,0.5-0.2,0.7-0.3
		s0.3-0.2,0.5-0.2s0.3-0.1,0.5-0.2s0.4-0.2,0.7-0.3c0.2-0.1,0.4-0.2,0.7-0.3c0.2-0.1,0.4-0.2,0.6-0.3c0,0,0.1,0,0.1,0c0,0,0,0,0,0
		s0,0,0,0s0,0,0.1,0c0,0,0,0,0.1,0c0,0,0,0,0,0c0.1,0,0.2,0,0.2,0c0,0,0.1,0.1,0.1,0.1c0,0,0,0.1-0.1,0.2c0,0.1-0.1,0.1-0.2,0.2
		c0,0,0,0,0,0s-0.1,0.1-0.2,0.1c-0.1,0-0.1,0.1-0.2,0.2c-0.1,0.1-0.3,0.2-0.5,0.3c-0.2,0.1-0.4,0.2-0.6,0.4
		c-0.2,0.1-0.4,0.2-0.6,0.3c-0.2,0.1-0.3,0.2-0.4,0.2L113.6,27.4z M112.2,25.3c0.1,0,0.2,0,0.3-0.1c0.1-0.1,0.2-0.1,0.3-0.2
		c0.3-0.2,0.5-0.4,0.8-0.7c0.3-0.3,0.5-0.5,0.8-0.8c0,0,0,0,0-0.1c-0.5,0.2-0.9,0.4-1.3,0.8C112.8,24.6,112.5,24.9,112.2,25.3z"/>
	<path class="st3" d="M121.8,23.3C121.7,23.3,121.7,23.4,121.8,23.3c0,0.1,0,0.2-0.1,0.2c0,0,0,0-0.1,0c0,0.1-0.1,0.1-0.1,0.1
		s-0.1,0.1-0.2,0.1c-0.3,0.1-0.5,0.2-0.8,0.3s-0.6,0.3-0.8,0.4c-0.3,0.1-0.5,0.3-0.8,0.4s-0.4,0.3-0.5,0.4c-0.1,0.1-0.2,0.2-0.3,0.3
		s-0.2,0.3-0.3,0.4c0,0.1-0.1,0.2-0.1,0.4c0,0.2-0.1,0.3-0.1,0.5s-0.1,0.3-0.1,0.4s-0.1,0.2-0.1,0.2c0,0.1-0.1,0.1-0.2,0.2
		c-0.1,0.1-0.1,0.1-0.2,0.1c-0.2,0.1-0.4,0.1-0.5,0s-0.2-0.3-0.2-0.5c0-0.1,0.1-0.3,0.2-0.6c0.1-0.3,0.2-0.5,0.2-0.6v0
		c0,0,0-0.1,0-0.1c0.1-0.2,0.2-0.4,0.3-0.6c0.1-0.2,0.1-0.4,0.2-0.6c0,0,0,0,0,0c0,0,0,0,0,0c0.1-0.3,0.1-0.5,0.3-0.8
		c0.1-0.3,0.2-0.5,0.3-0.8c0-0.1,0-0.1,0.1-0.1c0,0,0.1-0.1,0.1-0.1c0.1,0,0.1-0.1,0.2-0.1c0,0,0.1,0,0.1,0c0,0,0.1,0,0.1,0
		c0,0,0.1,0,0.1,0c0,0,0.1,0,0.1,0c0.1,0,0.2,0.1,0.3,0.1c0.2,0.2,0.1,0.4,0,0.6c0,0.1,0,0.2-0.1,0.3c0,0.1-0.1,0.2-0.1,0.3
		c0.5-0.3,0.9-0.6,1.4-0.7c0.5-0.1,0.9-0.2,1.3-0.2c0.1,0,0.2,0,0.4,0C121.5,23.2,121.7,23.2,121.8,23.3z"/>
</g>
<g>
</g>
<g>
</g>
<g>
</g>
<g>
</g>
<g>
</g>
<g>
</g>
<g>
</g>
</svg>
